PathFileType	4	(X/Y/Z)	C:\Users\Basilio\Documents\Thesis Gigler\squatting_fais\c3dfiles\075\SJ_pre5\markers_experimental.trc
DataRate	CameraRate	NumFrames	NumMarkers	Units	OrigDataRate	OrigDataStartFrame	OrigNumFrames
200.000000	200.000000	4	61	mm	200.000000	183	1470
Frame#	Time	FHD			LBHD			RBHD			C7			T10			CLAV			LSHO			LUUPA			LMUPA			LDUPA			LLEP			LMEP			LRAD			LUL			LRFIN			RSHO			RUPA1			RMUPA			RDUPA			RLEP			RMEP			RRAD			RUL			RUFIN			LASI			RASI			USACR			LSACR			RSACR			LTHI1			LTHI2			LTHI3			LTHI4			LLFC			LMFC			LTIB1			LTIB2			LTIB3			LTIB4			LLMAL			LMMAL			LHEE			LMT1			LMT2			LMT5			RTHI			RTHI2			RTHI3			RTHI4			RLFC			RMFC			RTIB1			RTIB2			RTIB3			RTIB4			RLMAL			RMMAL			RHEE			RMT1			RMT2			RMT5			
		X1	Y1	Z1	X2	Y2	Z2	X3	Y3	Z3	X4	Y4	Z4	X5	Y5	Z5	X6	Y6	Z6	X7	Y7	Z7	X8	Y8	Z8	X9	Y9	Z9	X10	Y10	Z10	X11	Y11	Z11	X12	Y12	Z12	X13	Y13	Z13	X14	Y14	Z14	X15	Y15	Z15	X16	Y16	Z16	X17	Y17	Z17	X18	Y18	Z18	X19	Y19	Z19	X20	Y20	Z20	X21	Y21	Z21	X22	Y22	Z22	X23	Y23	Z23	X24	Y24	Z24	X25	Y25	Z25	X26	Y26	Z26	X27	Y27	Z27	X28	Y28	Z28	X29	Y29	Z29	X30	Y30	Z30	X31	Y31	Z31	X32	Y32	Z32	X33	Y33	Z33	X34	Y34	Z34	X35	Y35	Z35	X36	Y36	Z36	X37	Y37	Z37	X38	Y38	Z38	X39	Y39	Z39	X40	Y40	Z40	X41	Y41	Z41	X42	Y42	Z42	X43	Y43	Z43	X44	Y44	Z44	X45	Y45	Z45	X46	Y46	Z46	X47	Y47	Z47	X48	Y48	Z48	X49	Y49	Z49	X50	Y50	Z50	X51	Y51	Z51	X52	Y52	Z52	X53	Y53	Z53	X54	Y54	Z54	X55	Y55	Z55	X56	Y56	Z56	X57	Y57	Z57	X58	Y58	Z58	X59	Y59	Z59	X60	Y60	Z60	X61	Y61	Z61	

184	0.915	-103.0269927978516	1583.121337890625	-918.366149902344	-288.9026794433594	1594.566650390625	-987.7932128906252	-237.1697082519532	1599.114013671875	-835.6082153320315	-384.6427612304689	1467.507080078125	-930.5236816406252	-418.6006774902345	1136.925659179688	-925.6298828125002	-242.7181396484376	1394.665893554688	-926.141296386719	-283.5621643066407	1434.49560546875	-1087.34326171875	-326.0441894531251	1280.308715820313	-1249.056762695313	-293.8786315917969	1243.988525390625	-1237.013671875	-322.6319580078126	1219.453857421875	-1284.435913085938	-318.7752990722657	1135.643676757813	-1308.190795898438	-400.0061035156251	1128.206909179688	-1263.6962890625	-307.0609741210938	949.448913574219	-1142.211791992188	-262.3200378417969	914.3569335937502	-1191.936401367188	-264.5286560058594	936.3951416015627	-1095.884765625	-289.0612487792969	1433.806030273438	-765.8062133789064	-342.3420410156251	1283.729370117188	-608.5342407226564	-312.8233947753907	1243.700561523438	-613.7249755859376	-350.2749023437501	1224.501342773438	-570.0579223632814	-349.5525207519532	1155.684326171875	-544.8553466796876	-423.529510498047	1128.939819335938	-576.7263793945314	-306.9756164550782	956.3469238281252	-712.0239868164064	-261.7264099121094	933.914733886719	-653.9446411132814	-248.3457946777344	951.4038085937502	-751.9827880859376	-264.9769287109376	945.8809814453127	-1048.382934570313	-251.7104797363282	961.1709594726565	-802.9754638671877	-415.2930603027345	1039.046630859375	-925.0425415039065	-423.9109191894532	1006.741333007813	-951.0220336914065	-420.0831604003907	1009.7392578125	-893.6677246093752	-321.1234741210938	717.4828491210939	-1129.62744140625	-285.1929931640626	640.8872680664064	-1135.450927734375	-238.2193298339844	648.4628295898439	-1121.288818359375	-309.0661621093751	585.8240966796876	-1126.376953125	-304.3404846191407	479.2837219238282	-1119.91259765625	-254.1631317138672	464.6971740722657	-1005.204223632813	-253.3820190429688	353.2360229492188	-1098.42236328125	-319.9113159179688	318.8147277832032	-1142.847534179688	-278.4363403320313	309.9178771972657	-1127.621826171875	-285.8610229492188	228.8041534423829	-1101.710327148438	-374.3595886230469	95.51078033447267	-1116.352661132813	-335.3921203613282	100.4099502563477	-1038.2861328125	-422.108612060547	51.2514991760254	-1070.526489257813	-209.8033752441407	51.43831634521486	-1078.9169921875	-216.3692626953126	56.50978851318361	-1127.235595703125	-261.8593444824219	41.99366760253907	-1175.517578125	-321.3859252929688	775.1851196289065	-717.6847534179689	-282.4411315917969	722.3225097656251	-715.3966674804689	-251.6007080078126	727.3463745117189	-727.2098999023439	-310.1098022460938	640.8651123046876	-717.3759155273439	-320.6716308593751	487.1231994628907	-738.5821533203126	-280.7552490234376	467.094451904297	-856.7946777343752	-274.5992736816407	333.1293334960938	-784.2693481445315	-331.5047912597657	263.5455932617188	-721.1195678710939	-293.9339294433594	254.6184082031251	-750.0675659179689	-302.1496887207032	206.6722106933594	-781.7572021484377	-377.9190368652344	90.78802490234376	-739.1356201171876	-340.6686706542969	107.5946121215821	-819.1358642578127	-421.1795959472657	48.04531478881837	-796.5144042968752	-213.1170959472657	58.92656707763673	-771.4621582031252	-220.502182006836	58.9064292907715	-729.7598876953126	-260.6813049316407	35.72171020507813	-681.3099975585939	
185	0.92	-102.8612213134766	1583.27880859375	-917.9414062500002	-289.3354492187501	1594.502319335938	-987.628112792969	-237.5000610351563	1599.09716796875	-835.5647583007815	-384.8149719238282	1467.298217773438	-930.445007324219	-418.6979370117189	1136.864135742188	-925.4768066406252	-242.751449584961	1394.59716796875	-926.0839843750002	-283.4976196289063	1434.468872070313	-1087.226684570313	-325.7755737304688	1280.2724609375	-1249.0146484375	-292.9986572265626	1243.724487304688	-1236.726196289063	-322.3011474609376	1219.393676757813	-1284.358520507813	-318.3977966308594	1135.638061523438	-1308.17333984375	-399.7430419921876	1128.114501953125	-1263.674194335938	-307.0445251464844	949.5543212890627	-1141.912719726563	-262.0175170898438	914.304138183594	-1191.386352539063	-265.6755981445313	936.5769653320315	-1095.741577148438	-289.2007141113282	1433.81005859375	-765.6962280273439	-342.5056152343751	1283.795654296875	-608.4396972656251	-312.9133300781251	1243.661987304688	-613.6204223632814	-350.3630981445313	1224.4228515625	-569.9182128906251	-349.7412109375001	1155.76953125	-544.6904907226564	-423.6944274902345	1128.95361328125	-576.6037597656251	-307.0343322753907	956.3808593750002	-711.8591918945314	-261.8503112792969	933.873718261719	-653.6769409179689	-248.5058898925782	951.2669677734377	-751.7344360351564	-264.9693298339844	945.7478027343752	-1048.075317382813	-251.7849273681641	961.1281738281252	-802.7854003906252	-415.3790588378907	1039.016967773438	-924.810974121094	-424.0642089843751	1006.60205078125	-950.8314208984377	-420.1987915039064	1009.608703613281	-893.514831542969	-320.8265075683594	717.2972412109376	-1129.765014648438	-284.4533996582032	640.8155517578126	-1135.619384765625	-238.7654724121094	648.8717041015626	-1122.05224609375	-308.1749572753907	585.7853393554689	-1126.736450195313	-303.1546020507813	479.3926696777345	-1120.465209960938	-252.4299926757813	464.6876220703126	-1005.812072753906	-252.1825866699219	353.0697631835938	-1098.645629882813	-319.6693115234376	319.3586425781251	-1143.534423828125	-277.2430725097657	309.9210205078126	-1127.879760742188	-284.3961791992188	228.8152770996094	-1101.352416992188	-373.9326171875001	95.70618438720705	-1116.17529296875	-335.0255126953126	100.398193359375	-1038.211181640625	-421.9043579101564	51.49268722534181	-1070.19189453125	-209.5074920654297	51.30833816528322	-1078.90576171875	-216.2541961669922	56.45751190185548	-1127.305297851563	-261.8323669433594	41.97159957885743	-1175.419799804688	-321.2685546875001	775.0692138671877	-717.5430297851564	-282.3340148925782	722.2542724609376	-715.4061889648439	-251.5126647949219	727.2564697265626	-727.1771240234376	-309.9382629394532	640.7893066406251	-717.2299194335939	-320.4338073730469	486.9926757812501	-738.4259033203126	-280.6588134765626	466.9449462890626	-856.741882324219	-274.3956298828126	333.0597229003907	-784.2191162109377	-331.3262939453126	263.4083862304688	-721.0649414062501	-293.7741088867188	254.5006561279297	-749.9653930664064	-302.0662841796876	206.6234893798829	-781.779235839844	-377.9247131347657	90.7747039794922	-739.1418457031251	-340.6415100097657	107.5809707641602	-819.0432128906252	-421.1866760253907	48.06513977050783	-796.4803466796877	-213.1332244873047	58.93520355224611	-771.4560546875002	-220.4843902587891	58.92756271362306	-729.7411499023439	-260.6760253906251	35.75674438476563	-681.2701416015626	
186	0.925	-103.223388671875	1583.514770507813	-917.8645629882815	-289.5549926757813	1594.396362304688	-987.5720825195315	-237.8331756591797	1599.069458007813	-835.4818115234377	-384.9159545898439	1467.130981445313	-930.449645996094	-418.794647216797	1136.782348632813	-925.3359985351565	-242.6929016113282	1394.512329101563	-925.8693847656252	-283.4089660644532	1434.412353515625	-1087.063598632813	-325.3507995605469	1280.19873046875	-1248.876098632813	-292.6284484863282	1243.615844726563	-1236.542114257813	-321.9470214843751	1219.275756835938	-1284.287475585938	-318.1063842773438	1135.605346679688	-1308.082153320313	-399.4924316406251	1128.083251953125	-1263.664184570313	-307.0761718750001	949.5895996093752	-1141.60791015625	-261.8377380371094	914.3449707031252	-1190.996459960938	-264.7748107910157	936.5290527343752	-1095.034545898438	-289.2787780761719	1433.74658203125	-765.5864868164064	-342.6971435546876	1283.744995117188	-608.3101806640626	-313.0375671386719	1243.65673828125	-613.4741210937501	-350.5162353515626	1224.443969726563	-569.7754516601564	-349.9415283203126	1155.778930664063	-544.5284423828126	-423.8562622070314	1129.00048828125	-576.4531860351564	-307.2884521484376	956.295593261719	-711.6016235351564	-262.0204772949219	933.8359985351565	-653.4010009765626	-248.7104034423829	951.1546020507815	-751.5516357421876	-264.7554626464844	945.6074218750002	-1047.752685546875	-251.9153137207032	961.011169433594	-802.6321411132815	-415.553680419922	1038.85791015625	-924.6162719726565	-424.2627563476564	1006.375915527344	-950.5877075195315	-420.359100341797	1009.5068359375	-893.2945556640627	-319.8804016113282	717.0056152343751	-1129.914916992188	-283.7822875976563	640.8222656250001	-1135.8037109375	-238.1233673095704	649.1163330078126	-1122.375366210938	-307.1251220703126	585.6670532226564	-1127.150146484375	-301.7160034179688	479.3364562988282	-1120.902221679688	-250.7065124511719	464.816131591797	-1006.467956542969	-251.1884460449219	352.9023132324219	-1098.871704101563	-318.7033691406251	319.3285522460938	-1143.649780273438	-276.7366333007813	309.9169921875001	-1127.99609375	-283.6582946777344	228.9817047119141	-1101.548217773438	-373.6170349121094	96.04843902587893	-1115.968872070313	-334.5503540039063	100.5667495727539	-1038.035522460938	-421.6668090820314	51.81941223144533	-1069.795043945313	-209.3058013916016	51.33689117431642	-1078.955444335938	-216.0604248046876	56.45392227172853	-1127.338256835938	-261.7594604492188	42.04301834106446	-1175.345825195313	-321.2049865722657	775.006042480469	-717.3444824218751	-282.2547607421876	722.1935424804689	-715.2615966796876	-251.4208068847657	727.2280273437501	-727.0482788085939	-309.7533569335938	640.6644287109376	-717.0660400390626	-320.1990966796876	486.8814392089845	-738.2393798828126	-281.6676635742188	466.976776123047	-857.0991210937502	-274.1910400390626	332.9658203125001	-784.0925903320315	-331.1107177734376	263.3818664550782	-720.9583129882814	-293.8961791992188	254.3296661376954	-750.0396118164064	-301.9804992675782	206.420394897461	-781.7383422851565	-377.9290161132813	90.7516326904297	-739.1484375000001	-340.6152343750001	107.6434173583985	-819.0074462890627	-421.1775512695314	48.04043197631837	-796.4597778320315	-213.1251373291016	58.91128158569337	-771.440856933594	-220.4836120605469	58.90646362304689	-729.7379760742189	-260.6890869140626	35.7523536682129	-681.2571411132814	
187	0.93	-103.4792938232422	1583.793212890625	-917.7259521484377	-289.8395080566407	1594.301147460938	-987.3684082031252	-238.1002349853516	1599.09765625	-835.3116455078127	-384.9860839843751	1467.003051757813	-930.338073730469	-418.9322814941407	1136.723876953125	-925.1750488281252	-242.7149963378907	1394.490844726563	-925.7316894531252	-283.4023437500001	1434.333251953125	-1086.97119140625	-324.9481201171876	1280.017333984375	-1248.80224609375	-292.3157958984376	1243.485107421875	-1236.314697265625	-321.3744812011719	1219.152954101563	-1284.12109375	-317.8048095703126	1135.514282226563	-1307.912475585938	-399.2187805175782	1128.06689453125	-1263.70654296875	-307.0506896972657	949.6130371093752	-1141.384887695313	-261.5867614746094	914.3107910156252	-1190.468994140625	-264.8432617187501	936.4189453125002	-1094.560791015625	-289.3785400390626	1433.706176757813	-765.5498657226564	-342.8708496093751	1283.72998046875	-608.1651000976564	-313.1788024902344	1243.683227539063	-613.3048706054689	-350.6437988281251	1224.437866210938	-569.7053833007814	-350.1322631835938	1155.7763671875	-544.3771972656251	-423.9569396972657	1129.037841796875	-576.2719116210939	-307.4510192871094	956.236511230469	-711.3632812500001	-262.2064819335938	933.786315917969	-653.1845703125001	-248.8861236572266	951.041198730469	-751.3449096679689	-264.6876831054688	945.5844726562502	-1047.439453125	-252.1523895263672	960.9102172851565	-802.484069824219	-415.7593078613282	1038.6875	-924.3972167968752	-424.4573364257814	1006.233520507813	-950.368103027344	-420.510955810547	1009.339538574219	-893.1068115234377	-320.2367248535157	717.0686035156251	-1130.15625	-284.0398864746094	641.1877441406251	-1136.604858398438	-236.7775878906251	649.2966308593751	-1122.685424804688	-306.0721130371094	585.5282592773439	-1127.621826171875	-300.0592041015626	479.1949462890626	-1121.292358398438	-249.1739349365235	464.8021545410157	-1007.3583984375	-250.5718383789063	353.0572204589844	-1099.708740234375	-317.8296508789063	319.3035888671876	-1143.77734375	-274.9910888671876	309.6892395019532	-1127.923217773438	-282.9304504394532	228.9907989501954	-1101.559936523438	-373.2310791015626	96.4488220214844	-1115.735107421875	-334.0702209472657	100.883529663086	-1037.868530273438	-421.3281250000001	52.16245651245119	-1069.410278320313	-209.1169128417969	51.25336837768556	-1078.950561523438	-215.8628082275391	56.32986068725587	-1127.295043945313	-261.7655029296876	42.0539779663086	-1175.201782226563	-321.1167297363282	774.9202880859377	-717.1390991210939	-282.1974792480469	722.0573120117189	-715.0914916992189	-251.3553009033204	727.1566772460939	-726.9694824218751	-309.6247558593751	640.5665893554689	-716.8903198242189	-319.8918151855469	486.7490539550782	-738.0797119140626	-281.4775085449219	466.9115295410157	-856.929138183594	-274.0586242675782	332.8809509277344	-783.9786376953127	-330.9018859863282	263.2903442382813	-720.8780517578126	-293.5707092285157	254.1952819824219	-749.8131103515626	-301.7953186035157	206.3751678466797	-781.6265258789065	-377.9336547851563	90.69338989257814	-739.1344604492189	-340.4268188476563	107.657958984375	-818.9671630859377	-421.1784057617189	48.00308990478517	-796.477478027344	-213.1084442138672	58.89694976806642	-771.4322509765627	-220.4988403320313	58.90708160400392	-729.7548828125001	-260.7048034667969	35.70491409301759	-681.2872924804689	
